<?xml version="1.0" encoding="utf-8"?>
<!-- Generator: Adobe Illustrator 21.0.0, SVG Export Plug-In . SVG Version: 6.00 Build 0)  -->
<svg version="1.1" id="Logo" xmlns="http://www.w3.org/2000/svg" xmlns:xlink="http://www.w3.org/1999/xlink" x="0px" y="0px"
	 viewBox="0 0 2005.7 1231.5" style="enable-background:new 0 0 2005.7 1231.5;" xml:space="preserve">
<style type="text/css">
	.st0{fill:url(#Ellipse_2_copy_2_1_);}
	.st1{fill:url(#Ellipse_2_copy_2-2_1_);}
	.st2{enable-background:new    ;}
	.st3{fill:#FAFAFA;}
</style>
<linearGradient id="Ellipse_2_copy_2_1_" gradientUnits="userSpaceOnUse" x1="526.7" y1="1231.8" x2="526.7" y2="178.3999" gradientTransform="matrix(1 0 0 -1 0 1232)">
	<stop  offset="0" style="stop-color:#66FF99"/>
	<stop  offset="1" style="stop-color:#38F9D7"/>
</linearGradient>
<circle id="Ellipse_2_copy_2" class="st0" cx="526.7" cy="526.9" r="526.7"/>
<linearGradient id="Ellipse_2_copy_2-2_1_" gradientUnits="userSpaceOnUse" x1="1396.2" y1="964.3" x2="1396.2" y2="581.5" gradientTransform="matrix(1 0 0 -1 0 1232)">
	<stop  offset="0" style="stop-color:#66FF99"/>
	<stop  offset="1" style="stop-color:#38F9D7"/>
</linearGradient>
<circle id="Ellipse_2_copy_2-2" class="st1" cx="1396.2" cy="459.1" r="191.4"/>
<g class="st2">
	<path class="st3" d="M1070.5,1156.6c12.6,0,22.8-3.7,30.8-11.1s11.9-18.9,11.9-34.4V819.7h83.8v293.7c0,35.5-9.1,63.1-27.2,82.7
		s-44.4,29.4-78.8,29.4c-19.2,0-35.2-2.4-47.7-7.2v-65.5C1054,1155.3,1063.1,1156.6,1070.5,1156.6z"/>
	<path class="st3" d="M1547.4,819.7v281.5h-82.7v-41.6c-8.5,14.4-20.5,25.7-36.1,33.9c-15.5,8.1-33.1,12.2-52.7,12.2
		c-24.4,0-46-5.9-64.7-17.8c-18.7-11.8-33.3-28.8-43.9-50.8c-10.5-22-15.8-47.5-15.8-76.3s5.3-54.6,15.8-77.2
		c10.5-22.6,25.3-40.1,44.1-52.5c18.9-12.4,40.3-18.6,64.4-18.6c19.6,0,37.2,4.3,52.7,12.8s27.6,20,36.1,34.4v-40L1547.4,819.7
		L1547.4,819.7z M1448,1020.6c11.1-14.1,16.7-34.4,16.7-61.1s-5.6-47.1-16.7-61.3s-27-21.4-47.7-21.4s-36.8,7.4-48.3,22.2
		s-17.2,35.3-17.2,61.6s5.6,46.4,16.9,60.2c11.3,13.9,27.5,20.8,48.6,20.8C1421,1041.7,1436.9,1034.7,1448,1020.6z"/>
	<path class="st3" d="M1892.7,819.7l-129.9,296.5c-15.9,35.9-36,62.3-60.2,79.1c-24.2,16.8-53.9,27.7-89.1,32.5l-19.4-64.4
		c25.9-5.6,45.4-12.6,58.6-21.1c13.1-8.5,23.4-20.9,30.8-37.2l8.3-18.3l-116-267h87.7l72.2,182.6l74.4-182.6L1892.7,819.7
		L1892.7,819.7z"/>
</g>
<circle class="st3" cx="1935.1" cy="1057.3" r="52.6"/>
<circle id="Ellipse_3_copy" class="st3" cx="1151.6" cy="718.3" r="52.6"/>
</svg>
