<?xml version="1.0" encoding="utf-8"?>
<!-- Generator: Adobe Illustrator 21.1.0, SVG Export Plug-In . SVG Version: 6.00 Build 0)  -->
<svg version="1.1" id="Layer_1" xmlns="http://www.w3.org/2000/svg" xmlns:xlink="http://www.w3.org/1999/xlink" x="0px" y="0px"
	 viewBox="0 0 360 256" style="enable-background:new 0 0 360 256;" xml:space="preserve">
<style type="text/css">
	.st0{fill:#808285;}
	.st1{fill:#007CC3;}
</style>
<g>
	<path class="st0" d="M322.2,35.9c0,4-0.5,8.5-1.6,13.3s-2.1,7.2-3.1,7.2c-0.8,0-1.2-0.4-1.2-1.2c0-0.2,0.1-0.6,0.2-1.1
		c1.8-5.5,2.7-11.4,2.7-17.7c0-9.8-2.9-17.7-8.7-23.7c-5.8-6-13.5-9-23-9c-13.1,0-26.3,4.3-39.7,12.9c11.5,9.1,17.3,19.1,17.3,29.8
		c0,9.1-3.6,16.8-10.9,23.2c-7.3,6.4-16.9,10.3-28.8,11.8c8.1,4.7,12.1,11.4,12.1,20.3c0,5.9-2.1,14.9-6.2,26.9
		c-2.8,7.9-4.1,14.1-4.1,18.6c0,4.7,1.7,8.6,5.1,11.8c3.4,3.2,7.5,4.8,12.4,4.8c5,0,9.8-1.6,14.3-4.7c1-0.6,1.7-0.9,2.1-0.9
		c0.6,0,0.9,0.3,0.9,0.9c0,1.3-2.2,2.8-6.6,4.4c-4.4,1.7-8.2,2.5-11.4,2.5c-7.5,0-13.8-3-18.9-8.9c-5.1-5.9-7.6-13.3-7.6-22.1
		c0-6.4,2.8-17.6,8.3-33.7c1.4-4.1,2.1-7.6,2.1-10.5c0-3.6-1.5-6.8-4.5-9.3c-4.9,0.5-7.7,0.7-8.4,0.7c-7.6,0-11.4-1-11.4-2.9
		c0-1.2,1.9-1.9,5.8-1.9c4.6,0,9.2,0.9,13.8,2.7c9.3-1.5,16.8-5.8,22.7-12.8c5.9-7.1,8.9-15.4,8.9-25.1c0-7.6-3-14.9-9-21.9
		l-1.2-1.5c-17,12.7-33.1,35-48.3,66.6c-9.2,19.2-17.6,33-25.2,41.5c-7.6,8.5-18.3,16.1-32.1,22.9c-16.2,7.9-30.7,11.9-43.5,11.9
		c-10.4,0-19.1-2.4-26-7.2s-10.4-10.7-10.4-17.9c0-4,1.2-7.4,3.7-10.2c2.5-2.9,5.3-4.3,8.6-4.3c4.7,0,7.1,2.6,7.1,7.9
		c0,2.6-0.8,4.9-2.4,6.8c-1.6,1.9-3.6,2.8-5.9,2.8c-4,0-6-2.1-5.8-6.3c0.1-1.7-0.1-2.6-0.5-2.6c-1.2,0-1.9,2.1-1.9,6.2
		c0,6.4,3.2,11.8,9.5,16.1s14.3,6.4,23.9,6.4c17,0,32.4-6.3,46.2-18.9c6.1-5.5,11.2-11.1,15.5-16.9c4.7-6.2,14.8-21.3,30.5-45.2
		c7.8-11.8,17.1-23.7,27.7-35.5C225.9,31,235,22.5,242.4,17.4C230.3,7.1,212.5,1.9,189,1.9c-32.8,0-61.3,11.9-85.5,35.6
		C83.6,56.9,73.7,75.3,73.7,92.4c0,8.7,2.8,15.6,8.4,20.8c5.6,5.1,13.1,7.7,22.7,7.7c15.6,0,31.7-7.5,48.3-22.5s25-29.6,25-43.8
		c0-11.3-5.8-16.9-17.3-16.9s-23.9,6.5-37.1,19.4S104,82.5,104,93.9c0,2.8,0.9,5.2,2.8,7.2c1.8,2,4,3,6.5,3c1.3,0,2,0.4,2,1.1
		c0,0.6-0.7,0.9-2.2,0.9c-3.7,0-6.8-1.7-9.4-5.1c-2.5-3.4-3.8-7.5-3.8-12.4c0-12.1,6.6-23.9,19.9-35.4C132.9,41.7,146.5,36,160.5,36
		c13.3,0,20,6.2,20,18.5c0,15.1-8.5,30.3-25.5,45.6c-17,15.4-33.8,23.1-50.3,23.1c-10.8,0-19.4-3.2-25.9-9.7s-9.7-15.2-9.7-26
		c0-22,12.4-42,37.3-60.2C131.1,9.1,158.5,0,188.6,0c22.9,0,42.1,5.1,57.6,15.3C260.4,6.4,274.2,2,287.5,2c10.4,0,18.8,3.1,25.1,9.3
		C319,17.5,322.2,25.7,322.2,35.9z"/>
	<g>
		<path class="st1" d="M18.8,201.8v8.4c0,0.4,0.1,0.7,0.3,0.9c0.2,0.2,0.5,0.4,0.9,0.5v0.6h-7.9v-0.6c0.4-0.1,0.7-0.3,0.9-0.5
			s0.3-0.5,0.3-0.8V189c0-0.4-0.1-0.7-0.3-0.9s-0.5-0.4-0.9-0.5V187h15.8c1.9,0,3.4,0.1,4.6,0.3c1.1,0.2,2.1,0.6,2.9,1.2
			c1,0.6,1.7,1.5,2.2,2.6s0.7,2.2,0.7,3.4c0,4.1-2.3,6.5-6.9,7.2l4.9,7c0.9,1.2,1.5,2,1.9,2.4c0.4,0.3,0.9,0.5,1.5,0.6v0.6h-9.1
			v-0.6c0.6-0.1,0.9-0.3,0.9-0.7c0-0.2-0.3-0.8-0.9-1.6l-5.1-7.4h-6.7V201.8z M18.8,197.6h8.5c1.3,0,2.1,0,2.7-0.1
			c0.5-0.1,1-0.2,1.4-0.5c0.9-0.5,1.4-1.4,1.4-2.7s-0.5-2.2-1.4-2.7c-0.4-0.2-0.9-0.4-1.4-0.5s-1.4-0.1-2.7-0.1h-8.5V197.6z"/>
		<path class="st1" d="M57.3,210.1v-21.4c0-0.4-0.1-0.7-0.3-0.8c-0.2-0.2-0.5-0.4-0.9-0.5v-0.6H64v0.6c-0.4,0.1-0.7,0.3-0.9,0.5
			s-0.3,0.5-0.3,0.9v21.4c0,0.4,0.1,0.7,0.3,0.9c0.2,0.2,0.5,0.4,0.9,0.5v0.6h-7.9v-0.6c0.4-0.1,0.7-0.3,0.9-0.5
			C57.2,210.8,57.3,210.5,57.3,210.1z"/>
		<path class="st1" d="M94.5,204.8l6.7-14.9c0.3-0.6,0.4-1.1,0.4-1.5c0-0.5-0.4-0.9-1.2-1v-0.6h8.6v0.6c-0.5,0.1-0.9,0.2-1.1,0.5
			c-0.2,0.2-0.6,0.9-1.1,2l-8.7,18.9c-0.4,0.8-0.6,1.3-0.6,1.6c0,0.6,0.4,1,1.2,1.1v0.6H90v-0.6c0.8-0.1,1.2-0.5,1.2-1.1
			c0-0.2-0.2-0.7-0.6-1.5L81.9,190c-0.5-1.1-0.9-1.8-1.1-2s-0.6-0.4-1.1-0.5v-0.6h8.9v0.6c-0.8,0.2-1.2,0.5-1.2,1
			c0,0.3,0.1,0.8,0.4,1.5L94.5,204.8z"/>
		<path class="st1" d="M131.3,201v6.9h16.2c0.4,0,0.7-0.1,0.8-0.3c0.2-0.2,0.4-0.5,0.5-0.9h0.6v6.5h-0.6c-0.1-0.4-0.3-0.7-0.5-0.9
			c-0.2-0.2-0.5-0.3-0.8-0.3h-22.9v-0.6c0.4-0.1,0.7-0.3,0.9-0.5c0.2-0.2,0.3-0.5,0.3-0.9v-21.3c0-0.4-0.1-0.7-0.3-0.9
			c-0.2-0.2-0.5-0.4-0.9-0.5v-0.6H147c0.4,0,0.7-0.1,0.8-0.3c0.2-0.2,0.4-0.5,0.5-0.9h0.6v6.5h-0.6c-0.1-0.4-0.3-0.7-0.5-0.9
			s-0.5-0.3-0.8-0.3h-15.7v6h10.2c0.4,0,0.7-0.1,0.8-0.3c0.2-0.2,0.4-0.5,0.5-0.9h0.6v6.4h-0.6c-0.1-0.4-0.3-0.7-0.5-0.9
			s-0.5-0.3-0.8-0.3h-10.2V201z"/>
		<path class="st1" d="M173.5,201.8v8.4c0,0.4,0.1,0.7,0.3,0.9c0.2,0.2,0.5,0.4,0.9,0.5v0.6h-7.9v-0.6c0.4-0.1,0.7-0.3,0.9-0.5
			s0.3-0.5,0.3-0.8V189c0-0.4-0.1-0.7-0.3-0.9s-0.5-0.4-0.9-0.5V187h15.8c1.9,0,3.4,0.1,4.6,0.3c1.1,0.2,2.1,0.6,2.9,1.2
			c1,0.6,1.7,1.5,2.2,2.6s0.7,2.2,0.7,3.4c0,4.1-2.3,6.5-6.9,7.2l4.9,7c0.9,1.2,1.5,2,1.9,2.4c0.4,0.3,0.9,0.5,1.5,0.6v0.6h-9.1
			v-0.6c0.6-0.1,0.9-0.3,0.9-0.7c0-0.2-0.3-0.8-0.9-1.6l-5.1-7.4h-6.7V201.8z M173.5,197.6h8.5c1.3,0,2.1,0,2.7-0.1
			c0.5-0.1,1-0.2,1.4-0.5c0.9-0.5,1.4-1.4,1.4-2.7s-0.5-2.2-1.4-2.7c-0.4-0.2-0.9-0.4-1.4-0.5s-1.4-0.1-2.7-0.1h-8.5V197.6z"/>
		<path class="st1" d="M234.4,189l-3,5.9l-0.5-0.3c0-0.1,0-0.2,0-0.3c0-0.4-0.4-0.9-1.1-1.3c-2.2-1.5-4.8-2.3-7.7-2.3
			c-1.3,0-2.5,0.2-3.5,0.5c-0.7,0.2-1.3,0.6-1.8,1.1s-0.7,1-0.7,1.6c0,0.9,0.6,1.6,1.7,1.9c0.6,0.2,1.9,0.4,3.8,0.6l2.9,0.3
			c1.7,0.2,3.1,0.4,4.2,0.8c1.1,0.3,2,0.8,2.8,1.3c0.8,0.6,1.5,1.4,2,2.4s0.7,2,0.7,3.2c0,1.8-0.6,3.4-1.7,4.7
			c-1,1.3-2.6,2.2-4.8,2.8c-1.6,0.5-3.4,0.7-5.2,0.7c-3.3,0-6.6-0.8-9.9-2.4c-0.7-0.3-1.1-0.5-1.2-0.5c-0.2,0-0.4,0.1-0.8,0.4
			l-0.5-0.3l2.7-6.2l0.5,0.3c0,0.1,0,0.2,0,0.2c0,0.6,0.3,1.1,0.8,1.5c0.8,0.7,2,1.3,3.7,1.8s3.3,0.8,4.8,0.8c1.6,0,3-0.3,4.2-0.8
			c0.6-0.3,1.2-0.7,1.5-1.2c0.4-0.5,0.6-1,0.6-1.6c0-0.8-0.5-1.4-1.4-1.8c-0.6-0.2-1.9-0.5-3.8-0.7l-2.8-0.3
			c-1.9-0.2-3.3-0.4-4.1-0.6c-0.8-0.2-1.6-0.5-2.4-0.9c-1.1-0.6-2-1.4-2.6-2.5c-0.6-1-0.9-2.1-0.9-3.4c0-2.1,0.7-3.9,2.2-5.3
			c1.9-1.8,4.8-2.8,8.7-2.8c1.6,0,3.1,0.2,4.5,0.5s3.1,0.9,5.2,1.8c0.7,0.3,1.2,0.4,1.3,0.4c0.3,0,0.6-0.1,0.9-0.4L234.4,189z"/>
		<path class="st1" d="M252.8,210.1v-21.4c0-0.4-0.1-0.7-0.3-0.8c-0.2-0.2-0.5-0.4-0.9-0.5v-0.6h7.9v0.6c-0.4,0.1-0.7,0.3-0.9,0.5
			c-0.2,0.2-0.3,0.5-0.3,0.9v21.4c0,0.4,0.1,0.7,0.3,0.9c0.2,0.2,0.5,0.4,0.9,0.5v0.6h-7.9v-0.6c0.4-0.1,0.7-0.3,0.9-0.5
			C252.7,210.8,252.8,210.5,252.8,210.1z"/>
		<path class="st1" d="M278.7,210.1v-21.3c0-0.4-0.1-0.7-0.3-0.9c-0.2-0.2-0.5-0.4-0.9-0.5v-0.6h14.1c3.1,0,5.4,0.4,7.1,1.1
			c2.4,1,4.1,2.7,5.2,5.1c0.9,1.9,1.3,4,1.3,6.5c0,4.4-1.3,7.7-4,9.9c-1.1,1-2.4,1.6-3.9,2.1c-1.5,0.4-3.4,0.6-5.7,0.6h-14.1v-0.6
			c0.4-0.1,0.7-0.3,0.9-0.5C278.6,210.8,278.7,210.5,278.7,210.1z M284.2,207.9h6.9c2.2,0,3.9-0.3,5-0.9c2.4-1.3,3.6-3.8,3.6-7.6
			c0-2.7-0.6-4.8-1.9-6.2c-0.7-0.8-1.6-1.4-2.6-1.7s-2.4-0.5-4-0.5h-6.9v16.9H284.2z"/>
		<path class="st1" d="M329.4,201v6.9h16.2c0.4,0,0.7-0.1,0.8-0.3c0.2-0.2,0.4-0.5,0.5-0.9h0.6v6.5h-0.6c-0.1-0.4-0.3-0.7-0.5-0.9
			c-0.2-0.2-0.5-0.3-0.8-0.3h-22.9v-0.6c0.4-0.1,0.7-0.3,0.9-0.5c0.2-0.2,0.3-0.5,0.3-0.9v-21.3c0-0.4-0.1-0.7-0.3-0.9
			c-0.2-0.2-0.5-0.4-0.9-0.5v-0.6h22.4c0.4,0,0.7-0.1,0.8-0.3c0.2-0.2,0.4-0.5,0.5-0.9h0.6v6.5h-0.6c-0.1-0.4-0.3-0.7-0.5-0.9
			s-0.5-0.3-0.8-0.3h-15.7v6h10.2c0.4,0,0.7-0.1,0.8-0.3c0.2-0.2,0.4-0.5,0.5-0.9h0.6v6.4h-0.6c-0.1-0.4-0.3-0.7-0.5-0.9
			s-0.5-0.3-0.8-0.3h-10.2V201z"/>
	</g>
	<g>
		<path d="M10.7,254.7l1.3-0.1c1.4-0.1,1.4-0.3,1.4-4.7v-12.4c0-4.4,0-4.5-1.4-4.7l-1.3-0.1v-0.8h8.7v0.8l-1.3,0.1
			c-1.4,0.1-1.4,0.3-1.4,4.7v12.4c0,4.4,0,4.5,1.4,4.7l1.3,0.1v0.8h-8.7V254.7z"/>
		<path d="M22.4,254.7l0.9-0.1c1.2-0.1,1.6-0.3,1.6-2.6v-7c0-3.5,0-4.5-1-4.5c-0.2,0-0.4,0-0.5,0l-0.8,0.2l-0.1-0.9
			c1-0.3,4.3-1.2,5.5-1.2v2.2c0.8-0.7,2.7-2.2,5.5-2.2c5.6,0,5.6,3.9,5.6,8v5.3c0,2.3,0.3,2.5,1.6,2.6l0.8,0.1v0.8h-8v-0.8l0.9-0.1
			c1.2-0.1,1.6-0.3,1.6-2.6v-4.8c0-3.4,0-6.8-4.2-6.8c-1.9,0-3,1.1-3.7,1.9v9.7c0,2.3,0.3,2.5,1.6,2.6l0.8,0.1v0.8h-8L22.4,254.7
			L22.4,254.7z"/>
		<path d="M52.7,244c0-1.6-1.1-4.2-3.5-4.2c-1.4,0-2.3,1-2.3,2.5c0,4.1,7.9,2.9,7.9,8.6c0,3.4-2.8,5-6.2,5c-2.3,0-3.6-0.6-4.5-1
			c-0.5-1.6-0.7-3.4-0.7-4.8h1c0.7,2.3,1.9,4.6,4.8,4.6c1.6,0,2.5-1.4,2.5-2.6c0-4.9-7.9-3.1-7.9-9c0-2.9,2.6-4.5,5.7-4.5
			c1.9,0,3,0.6,3.8,1c0.4,1.3,0.5,2.4,0.5,4.3h-1.1V244z"/>
		<path d="M75.9,254.8c-1.6,0.6-2.9,0.9-4.8,1.2c-0.3-0.4-0.6-1-0.8-1.8c-1.1,0.7-2.7,1.8-5.5,1.8c-5.3,0-5.8-2.5-5.8-6.4v-4.5
			c0-3.5,0-4.5-1-4.5c-0.2,0-0.4,0-0.5,0l-0.8,0.2l-0.1-0.9c1-0.3,4.3-1.3,5.5-1.3v10.7c0,2.9,0.7,4.9,4.3,4.9
			c1.8,0,3.2-0.7,3.7-1.1V245c0-3.5,0-4.5-1-4.5c-0.2,0-0.4,0-0.5,0l-0.8,0.2l-0.1-0.9c1-0.3,4.3-1.3,5.5-1.3v10.9c0,3,0,4.5,1,4.5
			c0.1,0,0.4,0,0.6,0l0.9-0.1L75.9,254.8z"/>
		<path d="M77.8,254.7l0.9-0.1c1.2-0.1,1.6-0.1,1.6-2.6v-7c0-3.7,0-4.5-1-4.5c-0.3,0-0.6,0.1-0.9,0.2l-0.3,0.1l-0.3-0.9
			c1.8-0.6,4.2-1.3,5.2-1.3c0.1,0.6,0.2,1.4,0.2,2.3c0.5-0.6,2.1-2.3,3.9-2.3c1.1,0,2.2,0.8,2.7,1.1c-0.5,0.9-1,1.4-1.8,2
			c-0.5-0.2-2.4-0.8-2.9-0.8c-1.1,0-1.7,0.9-1.7,1.4v9.6c0,2.5,0.3,2.5,2.2,2.6l0.8,0.1v0.8h-8.5L77.8,254.7L77.8,254.7z"/>
		<path d="M106,255.1c-0.5,0.3-1.2,0.9-2.7,0.9c-1.8,0-2.5-0.7-2.8-1.5c-1.1,0.7-2.5,1.5-5.2,1.5c-2.6,0-4.4-1.5-4.4-3.5
			c0-4.6,6.2-6,9.3-7v-0.8c0-2.4-0.6-4.4-3.3-4.4c-2.9,0-3.7,2.2-4.4,3.6H92c-0.4-0.4-0.7-0.8-0.9-1.4c1.1-1.4,3.4-3.8,7.1-3.8
			c4.1,0,4.9,2.1,4.9,5.8v5.1c0,2.5,0,5.2,2,5.2c0.4,0,0.5-0.1,0.6-0.1L106,255.1z M99.6,247.3c-2,0-5.5,0.9-5.5,4.2
			c0,2,1.3,3.2,3.3,3.2c1.6,0,2.5-1.1,2.7-1.5v-6L99.6,247.3L99.6,247.3z"/>
		<path d="M107.6,254.7l0.9-0.1c1.2-0.1,1.6-0.3,1.6-2.6v-7c0-3.5,0-4.5-1-4.5c-0.2,0-0.4,0-0.5,0l-0.8,0.2l-0.1-0.9
			c1-0.3,4.3-1.2,5.5-1.2v2.2c0.8-0.7,2.7-2.2,5.5-2.2c5.6,0,5.6,3.9,5.6,8v5.3c0,2.3,0.3,2.5,1.6,2.6l0.8,0.1v0.8h-8v-0.8l0.9-0.1
			c1.2-0.1,1.6-0.3,1.6-2.6v-4.8c0-3.4,0-6.8-4.2-6.8c-1.9,0-3,1.1-3.7,1.9v9.7c0,2.3,0.3,2.5,1.6,2.6l0.8,0.1v0.8h-8v-0.7H107.6z"
			/>
		<path d="M141.5,254.5c-0.9,0.7-2.8,1.5-5.6,1.5c-4.1,0-8.3-2.4-8.3-7.5c0-6.9,4.9-9.8,9.2-9.8c1.7,0,3.3,0.4,4.1,1
			c0,0.7-0.4,1.8-0.9,2.6h-0.2c-0.5-0.7-1.9-2-4.2-2c-2.6,0-4.7,2-4.7,6.1c0,5.6,2.9,8.3,7,8.3c1.4,0,2.9-0.8,3.4-1.1L141.5,254.5z"
			/>
		<path d="M157.1,254c-0.6,0.5-3,2-6.2,2c-4.5,0-8.2-3-8.2-8.1c0-6,4.2-9.2,8.3-9.2c4.8,0,5.8,3.5,6.3,5.4c-4.1,2-8.2,3.1-11.3,3.8
			c0.1,2.2,1.9,6.4,6.7,6.4c2.2,0,3.5-0.9,4-1.1L157.1,254z M146,246.3c2.6-0.5,5.6-1.2,8.1-2c-0.5-2.2-1.4-4.4-4.1-4.4
			C146.9,239.9,146,243.7,146,246.3z"/>
	</g>
	<g>
		<path d="M179.5,241.9c2.8,1.6,5.7,3.1,5.7,7.4c0,4.8-4.5,6.7-8.2,6.7c-2.8,0-4.5-0.7-5.6-1.4c-0.6-1.4-1.1-4-1.1-6.3l1.1-0.3
			c0.4,2.6,1.7,6.8,6.6,6.8c2.5,0,4.3-1.6,4.3-4.4c0-2.6-2.2-4.4-5-5.6l-2.3-1.2c-2-1.1-3.9-3.3-3.9-6c0-4.4,3.6-6.2,7.4-6.2
			c2.2,0,4,0.6,4.9,1.1c0.3,1.1,0.4,4,0.4,4.9h-0.9c-0.4-1.8-0.9-4.9-5-4.9c-2.1,0-3.9,1.5-3.9,3.9c0,2.1,1.5,3.2,3.5,4.4
			L179.5,241.9z"/>
		<path d="M202.6,254c-0.6,0.5-3,2-6.2,2c-4.5,0-8.2-3-8.2-8.1c0-6,4.2-9.2,8.3-9.2c4.8,0,5.8,3.5,6.3,5.4c-4.1,2-8.2,3.1-11.3,3.8
			c0.1,2.2,1.9,6.4,6.7,6.4c2.2,0,3.5-0.9,4-1.1L202.6,254z M191.4,246.3c2.6-0.5,5.6-1.2,8.1-2c-0.5-2.2-1.4-4.4-4.1-4.4
			C192.3,239.9,191.4,243.7,191.4,246.3z"/>
		<path d="M204.5,254.7l0.9-0.1c1.2-0.1,1.6-0.1,1.6-2.6v-7c0-3.7,0-4.5-1-4.5c-0.3,0-0.6,0.1-0.9,0.2l-0.3,0.1l-0.3-0.9
			c1.8-0.6,4.2-1.3,5.2-1.3c0.1,0.6,0.2,1.4,0.2,2.3c0.5-0.6,2.1-2.3,3.9-2.3c1.1,0,2.2,0.8,2.7,1.1c-0.5,0.9-1,1.4-1.8,2
			c-0.5-0.2-2.4-0.8-2.9-0.8c-1.1,0-1.7,0.9-1.7,1.4v9.6c0,2.5,0.3,2.5,2.2,2.6l0.8,0.1v0.8h-8.5L204.5,254.7L204.5,254.7z"/>
		<path d="M219.8,242.3c-0.7-1.6-1-1.9-1.9-2.1L217,240v-0.8h8.2v0.8l-1.3,0.2c-0.9,0.1-1.4,0.3-1.4,0.6c0,0.2,0.2,0.7,0.3,1.1
			l4.1,10.1c0.3-0.9,1.2-3.1,2.5-6.5c1.1-2.9,1.6-4.2,1.6-4.6s-0.4-0.5-1-0.6l-1.8-0.3v-0.8h7.1v0.8l-0.6,0.2
			c-0.4,0.1-0.7,0.2-0.9,0.4c-0.6,0.5-2.4,4.7-2.9,5.7l-2.1,4.8c-1,2.2-1.6,3.9-1.8,4.2c-0.2,0.3-1.1,0.8-1.5,0.8L219.8,242.3z"/>
		<path d="M236.3,254.7l0.9-0.1c1.2-0.1,1.6-0.2,1.6-2.6v-7c0-3.5,0-4.5-1-4.5c-0.2,0-0.4,0-0.5,0l-0.8,0.2l-0.1-0.9
			c1-0.3,4.3-1.2,5.5-1.2V252c0,2.4,0.3,2.5,1.6,2.6l0.8,0.1v0.8h-8V254.7z M237.9,232.6c0-1.1,0.8-2,2-2s2,0.9,2,2c0,1-0.8,2-2,2
			S237.9,233.7,237.9,232.6z"/>
		<path d="M259.4,254.5c-0.9,0.7-2.8,1.5-5.6,1.5c-4.1,0-8.3-2.4-8.3-7.5c0-6.9,4.9-9.8,9.2-9.8c1.7,0,3.3,0.4,4.1,1
			c0,0.7-0.4,1.8-0.9,2.6h-0.2c-0.5-0.7-1.9-2-4.2-2c-2.6,0-4.7,2-4.7,6.1c0,5.6,2.9,8.3,7,8.3c1.4,0,2.9-0.8,3.4-1.1L259.4,254.5z"
			/>
		<path d="M275.1,254c-0.6,0.5-3,2-6.2,2c-4.5,0-8.2-3-8.2-8.1c0-6,4.2-9.2,8.3-9.2c4.8,0,5.8,3.5,6.3,5.4c-4.1,2-8.2,3.1-11.3,3.8
			c0.1,2.2,1.9,6.4,6.7,6.4c2.2,0,3.5-0.9,4-1.1L275.1,254z M263.9,246.3c2.6-0.5,5.6-1.2,8.1-2c-0.5-2.2-1.4-4.4-4.1-4.4
			C264.8,239.9,263.9,243.7,263.9,246.3z"/>
		<path d="M286.3,244c0-1.6-1.1-4.2-3.5-4.2c-1.4,0-2.3,1-2.3,2.5c0,4.1,7.9,2.9,7.9,8.6c0,3.4-2.8,5-6.2,5c-2.3,0-3.6-0.6-4.5-1
			c-0.5-1.6-0.7-3.4-0.7-4.8h1c0.7,2.3,1.9,4.6,4.8,4.6c1.6,0,2.5-1.4,2.5-2.6c0-4.9-7.9-3.1-7.9-9c0-2.9,2.6-4.5,5.7-4.5
			c1.9,0,3,0.6,3.8,1c0.4,1.3,0.5,2.4,0.5,4.3h-1.1V244z"/>
	</g>
	<g>
		<path d="M301.4,254.7l1.3-0.1c1.4-0.1,1.4-0.3,1.4-4.7v-12.4c0-4.4,0-4.5-1.4-4.7l-1.3-0.1v-0.8h8.7v0.8l-1.3,0.1
			c-1.4,0.1-1.4,0.3-1.4,4.7V254c1.3,0.2,2.6,0.4,3.9,0.4c5.3,0,5.6-2.1,6.4-5.1l0.9,0.1c-0.1,2.3-0.6,4-1.2,5.9h-16V254.7z"/>
		<path d="M329.8,254.8c-0.5,0.2-2.4,1.2-4.2,1.2c-3.9,0-4-2-4-5.9v-9.4c-0.8,0-1.9-0.1-2.8-0.4v-0.8c0.9-0.1,2-0.3,2.8-0.4v-1
			c0.9-1.2,2.1-2.3,3.1-3.1l0.4,0.2c-0.1,0.7-0.4,2.9-0.4,3.9c1,0.1,2.9,0.3,3.8,0.4v0.8c-0.9,0.3-2.8,0.3-3.8,0.4v7.7
			c0,2.8,0,5.9,3,5.9c0.7,0,1.4-0.2,1.8-0.3L329.8,254.8z"/>
		<path d="M349.3,254.7c-1.6,0.7-3.6,1.1-4.8,1.3c-0.2-0.4-0.5-1-0.7-1.5c-0.8,0.4-2.4,1.5-4.8,1.5c-3.7,0-7.9-2.2-7.9-7.9
			c0-6.8,5.7-9.4,10-9.4c0.9,0,1.8,0.1,2.6,0.3v-3.5c0-2.8,0-4.5-1.3-4.5c-0.2,0-0.4,0-0.5,0l-0.5,0.1l-0.1-0.8
			c1.1-0.2,4-0.6,5.5-0.6v21.6c0,1.9,0.2,2.7,1.2,2.7c0.1,0,0.4,0,0.6,0l0.6-0.1L349.3,254.7z M343.6,241.2c-0.9-0.8-2-1.2-3.6-1.2
			c-3.3,0-5.7,2.5-5.7,6.9c0,4.5,2.8,7.5,6.4,7.5c1.1,0,2.4-0.5,2.8-0.8v-12.4H343.6z"/>
	</g>
	<rect x="11" y="220.7" class="st0" width="337.2" height="3.2"/>
</g>
</svg>
