<svg xmlns="http://www.w3.org/2000/svg" viewBox="0 0 510.72 415.07"><defs><style>.cls-1{fill:#f2f2f2;}</style></defs><title>Asset 2</title><g id="Layer_2" data-name="Layer 2"><g id="Logo"><path class="cls-1" d="M160.62,415.07c192.73,0,298.13-159.67,298.13-298.13,0-4.54-.09-9.05-.3-13.55a213.19,213.19,0,0,0,52.27-54.25,209.16,209.16,0,0,1-60.17,16.5,105.14,105.14,0,0,0,46.08-58,210,210,0,0,1-66.53,25.43,104.88,104.88,0,0,0-178.57,95.56,297.48,297.48,0,0,1-216-109.48A104.86,104.86,0,0,0,68,159.08,104,104,0,0,1,20.53,146c0,.44,0,.88,0,1.34A104.83,104.83,0,0,0,104.57,250a104.62,104.62,0,0,1-47.32,1.8,104.9,104.9,0,0,0,97.89,72.78A210.26,210.26,0,0,1,25,369.46,213.3,213.3,0,0,1,0,368a296.65,296.65,0,0,0,160.62,47.07"/></g></g></svg>